<?xml version="1.0" encoding="UTF-8" standalone="no"?>
<svg
   version="1.1"
   width="77.792046"
   height="77.500999"
   viewBox="0 0 77.792046 77.500999"
   xml:space="preserve"
   id="svg5"
   xmlns="http://www.w3.org/2000/svg"
   xmlns:svg="http://www.w3.org/2000/svg">
<desc
   id="desc1">Created with Fabric.js 3.6.6</desc>
<defs
   id="defs1" />
<g
   transform="translate(38.897043,38.75)"
   id="g5">
<g
   id="g4">
		<g
   id="g1">
<path
   style="opacity:1;fill:#000000;fill-rule:nonzero;stroke:none;stroke-width:1;stroke-linecap:butt;stroke-linejoin:miter;stroke-miterlimit:4;stroke-dasharray:none;stroke-dashoffset:0"
   transform="translate(-51.14,-46.44)"
   d="m 51.283,7.69 c -21.367,0 -38.75,17.384 -38.75,38.751 0,7.399 2.093,14.577 6.058,20.794 l -6.277,16.49 c -0.156,0.409 -0.05,0.87 0.268,1.17 0.205,0.194 0.472,0.296 0.742,0.296 0.149,0 0.3,-0.03 0.442,-0.094 l 15.361,-6.875 c 6.524,4.562 14.172,6.969 22.157,6.969 21.368,0 38.751,-17.384 38.751,-38.75 C 90.034,25.074 72.651,7.69 51.283,7.69 Z m 0,71.784 c -6.983,0 -13.664,-2.16 -19.319,-6.248 -0.796,-0.574 -1.735,-0.878 -2.715,-0.878 -0.658,0 -1.295,0.136 -1.893,0.404 l -5.721,2.561 2.494,-6.556 c 0.531,-1.389 0.359,-2.957 -0.458,-4.196 -3.544,-5.389 -5.418,-11.654 -5.418,-18.12 0,-8.808 3.439,-17.099 9.686,-23.346 6.246,-6.247 14.538,-9.687 23.346,-9.687 18.215,0 33.033,14.819 33.033,33.033 -0.002,18.214 -14.82,33.033 -33.035,33.033 z"
   stroke-linecap="round"
   id="path1" />
</g>
		<g
   transform="translate(-10.47)"
   id="g2">
<path
   style="opacity:1;fill:#000000;fill-rule:nonzero;stroke:none;stroke-width:1;stroke-linecap:butt;stroke-linejoin:miter;stroke-miterlimit:4;stroke-dasharray:none;stroke-dashoffset:0"
   transform="translate(-40.67,-46.44)"
   d="M 48.319,39.468 H 36.893 v 4.585 h 10.488 v 3.75 H 36.893 v 5.552 h 11.953 v 3.881 H 32.484 V 35.645 h 15.835 z"
   stroke-linecap="round"
   id="path2" />
</g>
		<g
   transform="translate(9.9)"
   id="g3">
<path
   style="opacity:1;fill:#000000;fill-rule:nonzero;stroke:none;stroke-width:1;stroke-linecap:butt;stroke-linejoin:miter;stroke-miterlimit:4;stroke-dasharray:none;stroke-dashoffset:0"
   transform="translate(-61.04,-46.44)"
   d="m 52.289,35.645 h 4.729 L 65.59,50.7 V 35.645 h 4.203 v 21.591 h -4.51 l -8.791,-15.32 v 15.32 h -4.203 z"
   stroke-linecap="round"
   id="path3" />
</g>
</g>
</g>
</svg>
