<?xml version="1.0" encoding="UTF-8" standalone="no"?>
<svg
   version="1.1"
   width="77.791046"
   height="77.500999"
   viewBox="0 0 77.791046 77.500999"
   xml:space="preserve"
   id="svg5"
   xmlns="http://www.w3.org/2000/svg"
   xmlns:svg="http://www.w3.org/2000/svg">
<desc
   id="desc1">Created with Fabric.js 3.6.6</desc>
<defs
   id="defs1" />
<g
   transform="translate(38.892043,38.755)"
   id="g5">
<g
   id="g4">
		<g
   id="g1">
<path
   style="opacity:1;fill:#000000;fill-rule:nonzero;stroke:none;stroke-width:1;stroke-linecap:butt;stroke-linejoin:miter;stroke-miterlimit:4;stroke-dasharray:none;stroke-dashoffset:0"
   transform="translate(-50.67,-48.26)"
   d="m 50.818,9.505 c -21.367,0 -38.75,17.384 -38.75,38.751 0,7.399 2.093,14.577 6.058,20.794 l -6.277,16.49 c -0.156,0.409 -0.05,0.87 0.268,1.17 0.205,0.194 0.472,0.296 0.742,0.296 0.149,0 0.3,-0.03 0.442,-0.094 l 15.361,-6.875 c 6.524,4.562 14.172,6.969 22.156,6.969 21.368,0 38.751,-17.384 38.751,-38.75 0,-21.367 -17.382,-38.751 -38.751,-38.751 z m 0,71.784 c -6.982,0 -13.663,-2.16 -19.319,-6.248 -0.796,-0.574 -1.735,-0.878 -2.715,-0.878 -0.658,0 -1.295,0.136 -1.893,0.404 l -5.721,2.561 2.494,-6.556 c 0.531,-1.389 0.359,-2.957 -0.458,-4.196 -3.544,-5.389 -5.418,-11.654 -5.418,-18.12 0,-8.808 3.439,-17.099 9.686,-23.346 6.246,-6.247 14.538,-9.687 23.345,-9.687 18.215,0 33.033,14.819 33.033,33.033 0,18.215 -14.819,33.033 -33.034,33.033 z"
   stroke-linecap="round"
   id="path1" />
</g>
		<g
   transform="translate(-10.18,0.04)"
   id="g2">
<polygon
   style="opacity:1;fill:#000000;fill-rule:nonzero;stroke:none;stroke-width:1;stroke-linecap:butt;stroke-linejoin:miter;stroke-miterlimit:4;stroke-dasharray:none;stroke-dashoffset:0"
   points="6.72,-2.39 -3.77,-2.39 -3.77,-6.97 7.65,-6.97 7.65,-10.8 -8.18,-10.8 -8.18,10.8 8.18,10.8 8.18,6.91 -3.77,6.91 -3.77,1.36 6.72,1.36 "
   id="polygon1" />
</g>
		<g
   transform="translate(9.41)"
   id="g3">
<path
   style="opacity:1;fill:#000000;fill-rule:nonzero;stroke:none;stroke-width:1;stroke-linecap:butt;stroke-linejoin:miter;stroke-miterlimit:4;stroke-dasharray:none;stroke-dashoffset:0"
   transform="translate(-60.08,-48.26)"
   d="m 67.105,48.366 c -0.83,-0.654 -2.074,-1.177 -3.734,-1.567 l -3.789,-0.894 c -1.463,-0.342 -2.418,-0.64 -2.869,-0.894 -0.7,-0.381 -1.051,-0.957 -1.051,-1.729 0,-0.84 0.355,-1.494 1.066,-1.963 0.711,-0.469 1.662,-0.703 2.854,-0.703 1.07,0 1.967,0.181 2.688,0.542 1.08,0.547 1.662,1.47 1.742,2.769 h 4.336 c -0.08,-2.295 -0.932,-4.045 -2.559,-5.251 -1.627,-1.206 -3.592,-1.809 -5.895,-1.809 -2.758,0 -4.848,0.64 -6.271,1.919 -1.423,1.279 -2.136,2.886 -2.136,4.819 0,2.119 0.728,3.677 2.183,4.673 0.859,0.596 2.438,1.147 4.734,1.655 l 2.338,0.513 c 1.369,0.293 2.367,0.63 2.998,1.011 0.629,0.391 0.945,0.942 0.945,1.655 0,1.221 -0.645,2.056 -1.93,2.505 -0.678,0.234 -1.561,0.352 -2.648,0.352 -1.814,0 -3.095,-0.444 -3.842,-1.333 -0.409,-0.488 -0.684,-1.226 -0.823,-2.212 h -4.307 c 0,2.246 0.813,4.011 2.442,5.296 1.629,1.283 3.865,1.926 6.707,1.926 2.783,0 4.938,-0.652 6.463,-1.955 1.525,-1.305 2.287,-2.942 2.287,-4.915 10e-4,-1.924 -0.641,-3.394 -1.929,-4.41 z"
   stroke-linecap="round"
   id="path2" />
</g>
</g>
</g>
</svg>
