<?xml version="1.0" encoding="UTF-8"?><svg id="Layer_1" xmlns="http://www.w3.org/2000/svg" xmlns:xlink="http://www.w3.org/1999/xlink" viewBox="0 0 71.96 32.39"><defs><style>.cls-1{fill:url(#linear-gradient);}.cls-1,.cls-2,.cls-3,.cls-4,.cls-5,.cls-6,.cls-7,.cls-8,.cls-9,.cls-10{stroke-width:0px;}.cls-2{fill:url(#radial-gradient);}.cls-3{fill:#fff;opacity:.2;}.cls-4{fill:url(#linear-gradient-4);}.cls-5{fill:url(#linear-gradient-2);}.cls-6{fill:url(#linear-gradient-3);}.cls-7{fill:url(#linear-gradient-5);}.cls-8{fill:url(#linear-gradient-6);}.cls-9{fill:#271438;}.cls-10{fill:#595e63;}</style><linearGradient id="linear-gradient" x1="72.77" y1="24.22" x2="-1" y2="24.22" gradientUnits="userSpaceOnUse"><stop offset=".45" stop-color="#ca50cb"/><stop offset=".49" stop-color="#b743be"/><stop offset=".57" stop-color="#88239c"/><stop offset=".66" stop-color="#530077"/></linearGradient><linearGradient id="linear-gradient-2" x1="72.77" y1="24.22" x2="-1" y2="24.22" gradientUnits="userSpaceOnUse"><stop offset=".17" stop-color="#ca50cb"/><stop offset=".34" stop-color="#b743be"/><stop offset=".67" stop-color="#88239c"/><stop offset="1" stop-color="#530077"/></linearGradient><linearGradient id="linear-gradient-3" x1="72.77" y1="22.65" x2="-1" y2="22.65" xlink:href="#linear-gradient-2"/><linearGradient id="linear-gradient-4" x1="72.77" y1="24.22" x2="-1" y2="24.22" xlink:href="#linear-gradient-2"/><linearGradient id="linear-gradient-5" x1="72.77" y1="23.26" x2="-1" y2="23.26" xlink:href="#linear-gradient-2"/><linearGradient id="linear-gradient-6" x1="72.77" y1="26.05" x2="-1" y2="26.05" xlink:href="#linear-gradient-2"/><radialGradient id="radial-gradient" cx="9.9" cy=".06" fx="9.9" fy=".06" r="25.47" gradientUnits="userSpaceOnUse"><stop offset=".17" stop-color="#ca50cb"/><stop offset=".34" stop-color="#b743be"/><stop offset=".67" stop-color="#88239c"/><stop offset="1" stop-color="#530077"/></radialGradient></defs><path class="cls-1" d="M29.99,27.88c-.5-.23-.9-.54-1.2-.93-.29-.39-.46-.83-.48-1.3h1.98c.04.3.18.55.44.74.26.2.58.29.96.29s.67-.07.88-.22c.21-.15.32-.34.32-.57,0-.25-.13-.44-.39-.57s-.67-.26-1.23-.41c-.58-.14-1.05-.29-1.42-.43-.37-.15-.69-.38-.95-.69-.27-.31-.4-.72-.4-1.25,0-.43.12-.82.37-1.18.25-.35.6-.63,1.06-.84.46-.21,1.01-.31,1.63-.31.92,0,1.66.23,2.21.69.55.46.85,1.09.91,1.87h-1.88c-.03-.31-.16-.55-.39-.74-.23-.18-.53-.27-.92-.27-.35,0-.63.07-.82.2s-.29.31-.29.55c0,.26.13.46.39.59.26.14.67.27,1.22.41.56.14,1.02.29,1.39.43.36.15.68.38.95.69.27.31.4.73.41,1.24,0,.45-.12.85-.37,1.2-.25.36-.6.63-1.06.83-.46.2-1,.3-1.62.3s-1.21-.11-1.71-.34Z"/><path class="cls-5" d="M36.08,22.1c.31-.61.74-1.07,1.27-1.4s1.14-.49,1.8-.49c.58,0,1.09.12,1.52.35.43.23.78.53,1.04.88v-1.11h1.98v7.76h-1.98v-1.13c-.25.36-.6.66-1.04.9-.44.24-.96.36-1.53.36-.65,0-1.25-.17-1.79-.5-.54-.34-.96-.81-1.27-1.42-.31-.61-.47-1.31-.47-2.11s.16-1.48.47-2.09ZM41.44,22.99c-.19-.34-.44-.6-.76-.79-.32-.18-.66-.27-1.02-.27s-.7.09-1.01.27c-.31.18-.56.44-.75.78-.19.34-.29.74-.29,1.21s.1.88.29,1.23c.19.35.44.62.76.81.31.19.65.28,1,.28s.71-.09,1.02-.27c.32-.18.57-.44.76-.79.19-.34.28-.75.28-1.23s-.09-.88-.28-1.23Z"/><path class="cls-6" d="M49.18,21.95h-1.36v6.15h-1.99v-6.15h-.88v-1.61h.88v-.39c0-.95.27-1.65.81-2.1.54-.45,1.36-.66,2.45-.63v1.65c-.48,0-.81.07-1,.24-.19.17-.28.47-.28.91v.32h1.36v1.61Z"/><path class="cls-4" d="M57.61,24.81h-5.67c.05.56.24,1,.59,1.32s.77.48,1.27.48c.73,0,1.25-.31,1.56-.94h2.12c-.22.75-.65,1.36-1.29,1.84-.64.48-1.42.72-2.34.72-.75,0-1.42-.17-2.01-.5-.59-.33-1.06-.8-1.39-1.41s-.5-1.31-.5-2.1.16-1.51.49-2.11c.33-.61.78-1.07,1.37-1.4s1.27-.49,2.03-.49,1.4.16,1.98.48c.58.32,1.04.77,1.36,1.35.32.58.48,1.25.48,2.01,0,.28-.02.53-.06.76ZM55.63,23.49c0-.5-.19-.91-.55-1.21-.36-.3-.79-.45-1.3-.45-.49,0-.89.15-1.23.44-.33.29-.53.7-.61,1.23h3.68Z"/><path class="cls-7" d="M61.38,21.95v3.75c0,.26.06.45.19.57.13.12.34.17.64.17h.91v1.65h-1.23c-1.65,0-2.48-.8-2.48-2.41v-3.74h-.92v-1.61h.92v-1.92h1.97v1.92h1.74v1.61h-1.74Z"/><path class="cls-8" d="M71.96,20.34l-4.81,11.43h-2.09l1.68-3.87-3.11-7.56h2.2l2,5.42,2.03-5.42h2.09Z"/><path class="cls-9" d="M31.31,7.56c.44-.23.95-.35,1.52-.35.66,0,1.26.16,1.8.49s.96.79,1.28,1.39c.31.6.47,1.3.47,2.09s-.16,1.5-.47,2.11c-.31.61-.74,1.09-1.28,1.42-.54.34-1.14.5-1.8.5-.58,0-1.09-.11-1.52-.34-.43-.23-.78-.53-1.04-.89v1.11h-1.96V4.73h1.96v3.74c.25-.37.6-.68,1.04-.91ZM34.09,9.98c-.19-.34-.44-.6-.76-.78-.31-.18-.65-.27-1.02-.27s-.69.09-1,.27c-.31.18-.57.45-.76.79s-.29.75-.29,1.22.1.87.29,1.22.44.61.76.79c.31.18.65.27,1,.27s.7-.09,1.02-.28c.31-.19.56-.45.76-.8.19-.35.29-.76.29-1.23s-.1-.87-.29-1.21Z"/><path class="cls-9" d="M39.77,4.73v10.37h-1.96V4.73h1.96Z"/><path class="cls-9" d="M41.84,6.08c-.23-.22-.34-.49-.34-.82s.11-.6.34-.82c.23-.22.52-.33.86-.33s.63.11.86.33c.23.22.34.49.34.82s-.11.6-.34.82c-.23.22-.52.33-.86.33s-.63-.11-.86-.33ZM43.66,7.34v7.76h-1.96v-7.76h1.96Z"/><path class="cls-9" d="M52.14,8.1c.57.58.85,1.4.85,2.44v4.55h-1.96v-4.29c0-.62-.15-1.09-.46-1.42-.31-.33-.73-.5-1.26-.5s-.97.17-1.28.5c-.31.33-.47.81-.47,1.42v4.29h-1.96v-7.76h1.96v.97c.26-.34.59-.6,1-.79.41-.19.85-.29,1.34-.29.92,0,1.67.29,2.24.88Z"/><path class="cls-9" d="M59.45,15.1l-2.63-3.31v3.31h-1.96V4.73h1.96v5.9l2.61-3.29h2.55l-3.42,3.89,3.45,3.87h-2.55Z"/><path class="cls-2" d="M15.68,21.47c-.3.86-.46,1.75-.49,2.67v.97s0,.19,0,.19H5.06s-.01-.22-.01-.22v-1.04c-.05-1-.25-1.97-.6-2.9-.31-.83-.62-1.53-.93-2.1-.61-1.13-1.24-2.29-1.89-3.49-.58-1.08-1.02-2.13-1.31-3.15C.05,11.45-.05,10.44.02,9.37.25,6.12,2.1,3.18,4.85,1.49c4.12-2.53,9.42-1.77,12.7,1.78,1.47,1.59,2.34,3.46,2.62,5.63.29,2.28-.35,4.35-1.43,6.4-.61,1.16-1.27,2.38-1.97,3.65-.39.71-.75,1.55-1.09,2.52Z"/><path class="cls-10" d="M15.18,25.31v1.69c.02.59-.04,1.16-.18,1.73-.68,2.26-2.57,3.64-4.91,3.66-.89,0-1.84-.26-2.6-.72-1.1-.67-1.85-1.65-2.24-2.94-.13-.5-.19-1.01-.19-1.52v-1.89s10.12,0,10.12,0Z"/><path class="cls-3" d="M15.12,8.5c-.02-.21-.04-.43-.06-.66,0,0,0,0,0,0-.17,0-.34,0-.51,0-.49,0-.97-.07-1.44-.17-.51-.11-.99-.29-1.44-.52-.41-.21-.8-.47-1.14-.78-.13-.12-.27-.25-.4-.38,0,0,0,0,0,0-.12.11-.24.23-.36.34-.17.17-.36.31-.55.45-1,.69-2.2,1.03-3.41,1.07-.2,0-.41,0-.62.01,0,0,0,0,0,0-.02.21-.04.42-.06.63-.02.18-.03.4-.03.67,0,1.27.21,2.56.65,3.75.61,1.63,1.59,2.98,2.95,4.03.34.27.7.49,1.07.71v7.67h.75v-7.67c.06-.04.13-.08.19-.12.5-.3.97-.66,1.41-1.05.78-.7,1.41-1.52,1.9-2.45.79-1.49,1.16-3.19,1.15-4.87,0-.24,0-.45-.03-.64ZM14.62,9.65c-.06,1.2-.3,2.38-.77,3.48-.5,1.17-1.24,2.2-2.19,3.04-.47.41-.98.77-1.53,1.08,0,0,0,0,0,0-1.24-.71-2.3-1.67-3.07-2.88-.99-1.55-1.44-3.4-1.43-5.23,0-.26.01-.52.04-.78,0,0,0,0,0,0,.5,0,.99-.06,1.47-.16.92-.19,1.8-.57,2.55-1.13.16-.12.3-.24.44-.37,0,0,0,0,0,0,.17.16.36.32.56.46,1.13.8,2.51,1.19,3.9,1.2,0,0,0,0,0,0,.04.42.05.85.03,1.3Z"/></svg>